<svg width="194" height="194" viewBox="0 0 194 194" fill="none" xmlns="http://www.w3.org/2000/svg">
  <path
    d="M155.27 130.531L97.0433 164.062L38.73 130.531V115.667C38.73 101.84 49.9941 90.5185 63.6843 90.3457H64.2042C77.8944 90.3457 84.5662 96.0494 92.2777 102.617C100.942 109.963 110.734 118.346 129.796 118.346H130.402C152.237 118.173 170 100.198 170 78.3333V55L97.0433 13L24 54.9136V82.8272H26.2528C29.632 78.9383 34.1377 75.2222 38.73 72.6296V63.3827L97.0433 29.9383L155.27 63.4691V78.3333C155.27 92.1605 144.006 103.481 130.316 103.654H129.796C116.192 103.654 109.867 98.2963 101.809 91.4691C93.1442 84.037 83.3531 75.6543 64.2042 75.6543H63.5976C41.7626 75.8272 24 93.8025 24 115.667V139L97.0433 181L170 139V111.864H167.747C164.541 115.667 159.862 119.642 155.27 122.235V130.531Z"
    fill="#0E909D"
  />
</svg>
