<svg width="4em" height="1em" viewBox="0 0 572 146" fill="none">
  <path
    d="M67.5 1.79999H84.8V113.7H67.5V102.2C60.9 111.3 51.7 115.8 39.5 115.8C28.5 115.8 19.2 111.8 11.4 103.6C3.59999 95.4 -0.299988 85.4 -0.299988 73.7C-0.299988 61.9 3.49999 52 11.4 43.8C19.3 35.6 28.5 31.6 39.5 31.6C51.7 31.6 60.9 36.1 67.5 45V1.79999ZM42.2 99.3C49.4 99.3 55.5 96.9 60.3 92.1C65.1 87.1 67.5 81.1 67.5 73.7C67.5 66.3 65.1 60.3 60.3 55.5C55.5 50.5 49.4 48.1 42.2 48.1C35 48.1 28.9 50.5 24.1 55.5C19.3 60.3 16.9 66.4 16.9 73.7C16.9 81.1 19.3 87.1 24.1 92.1C28.9 96.9 35 99.3 42.2 99.3Z"
    fill="currentColor"
  />
  <path
    d="M159.7 33.8H178.1L147.4 116.3C139.7 136.9 126.8 146.8 108.4 145.7V129.5C119.3 130.1 125.4 124.9 129.7 113.8L130.5 112.2L96.6 33.7H115.5L139.3 91.7L159.7 33.8Z"
    fill="currentColor"
  />
  <path d="M245.2 33.8H264.1L232.9 113.8H212.9L181.7 33.8H200.6L223 94.6L245.2 33.8Z" fill="currentColor" />
  <path
    d="M285.6 81.1C288.2 93.3 297.9 100 311.2 100C320.3 100 327.2 96.6 331.8 90.1L346 98.4C338.2 110.1 326.5 115.8 311 115.8C298 115.8 287.5 111.8 279.5 104C271.5 96 267.5 85.9 267.5 73.8C267.5 61.8 271.5 51.9 279.3 43.9C287.1 35.7 297.4 31.7 309.7 31.7C321.4 31.7 331 35.9 338.5 44C346 52.2 349.9 62.2 349.9 73.9C349.9 75.7 349.7 78.1 349.3 81.1H285.6ZM332.4 67C330 54 320.9 47.3 309.5 47.3C296.7 47.3 287.8 54.8 285.4 67H332.4Z"
    fill="currentColor"
  />
  <path
    d="M437 64.6V113.7H419.7V66.4C419.7 54.4 412.8 47.9 401.8 47.9C389.6 47.9 381.5 55.4 381.5 70.9V113.8H364.2V33.8H381.5V44C386.8 35.8 394.9 31.7 406.3 31.7C424.7 31.7 437 44.2 437 64.6Z"
    fill="currentColor"
  />
  <path
    d="M455.3 18.6C451 14.1 451 7.39998 455.3 3.09998C459.6 -1.40002 466.7 -1.40002 471 3.09998C475.3 7.39998 475.3 14.1 470.8 18.6C466.5 22.9 459.8 22.9 455.3 18.6ZM454.5 113.7V33.7H471.8V113.7H454.5Z"
    fill="currentColor"
  />
  <path
    d="M554.7 33.8H572V113.8H554.7V102.3C548.1 111.4 538.9 115.9 526.7 115.9C515.7 115.9 506.4 111.9 498.6 103.7C490.8 95.5 486.9 85.5 486.9 73.8C486.9 62 490.7 52.1 498.6 43.9C506.5 35.7 515.7 31.7 526.7 31.7C538.9 31.7 548.1 36.2 554.7 45.1V33.8ZM529.5 99.3C536.7 99.3 542.8 96.9 547.6 92.1C552.4 87.1 554.8 81.1 554.8 73.7C554.8 66.3 552.4 60.3 547.6 55.5C542.8 50.5 536.7 48.1 529.5 48.1C522.3 48.1 516.2 50.5 511.4 55.5C506.6 60.3 504.2 66.4 504.2 73.7C504.2 81.1 506.6 87.1 511.4 92.1C516.2 96.9 522.3 99.3 529.5 99.3Z"
    fill="currentColor"
  />
</svg>
