<svg width="1em" height="1em" viewBox="0 0 170 195" fill="none">
  <path
    d="M152.1 136.4L84.9 175.2L17.6 136.4V119.2C17.6 103.2 30.6 90.1 46.4 89.9H47C62.8 89.9 70.5 96.5 79.4 104.1C89.4 112.6 100.7 122.3 122.7 122.3H123.4C148.6 122.1 169.1 101.3 169.1 76V49L84.9 0.400002L0.599998 48.9V81.2H3.2C7.1 76.7 12.3 72.4 17.6 69.4V58.7L84.9 20L152.1 58.8V76C152.1 92 139.1 105.1 123.3 105.3H122.7C107 105.3 99.7 99.1 90.4 91.2C80.4 82.6 69.1 72.9 47 72.9H46.3C21.1 73.1 0.599998 93.9 0.599998 119.2V146.2L84.9 194.8L169.1 146.2V114.8H166.5C162.8 119.2 157.4 123.8 152.1 126.8V136.4Z"
    fill="currentColor"
  />
</svg>
