<svg width="1em" height="1em" viewBox="0 0 492 491" fill="none" xmlns="http://www.w3.org/2000/svg">
  <path
    d="M121.082 205.194C117.623 204.405 114.071 203.617 110.526 202.787C93.1886 198.728 75.831 198.539 58.4331 202.423C49.9687 204.311 42.3085 207.649 36.5785 214.587C37.7513 210.98 43.3473 206.523 48.9299 204.237C57.3206 200.811 66.1871 199.874 75.0536 198.782C89.63 196.988 103.697 200.097 117.784 203.111C118.977 203.367 120.17 203.61 121.98 203.994C126.966 182.288 137.481 164.163 156.246 151.372C154.892 149.025 153.592 146.969 152.466 144.811C146.924 134.211 147.353 123.786 153.981 113.874C163.806 99.1876 177.216 88.5337 192.53 80.1588C207.052 72.2156 222.674 67.1448 238.491 62.6742C256.86 57.4821 275.196 52.1012 293.767 47.7452C325.299 40.3481 355.631 45.7156 385.005 58.2441C423.353 74.6026 450.777 102.418 468.59 139.963C475.118 153.725 481.605 167.629 486.538 182.012C494.815 206.165 491.718 229.665 479.032 251.775C469.824 267.823 455.669 276.239 437.568 278.639C419.272 281.067 400.929 282.254 382.486 281.889C363.406 281.512 344.325 281.047 325.252 280.622C323.811 280.588 322.37 280.615 320.702 280.615C320.253 281.849 319.777 282.847 319.529 283.899C315.045 302.577 303.833 315.274 286.06 322.206C270.947 328.099 255.386 331.74 239.114 331.929C238.122 331.943 237.137 332.057 235.381 332.179C229.658 344.073 223.572 356.069 218.07 368.321C212.581 380.546 208.647 393.385 206.67 406.642C204.713 419.791 203.655 433.081 202.2 446.304C201.838 446.412 201.476 446.513 201.115 446.621C200.418 445.38 199.339 444.214 199.077 442.879C197.455 434.747 195.458 426.642 194.627 418.415C192.302 395.421 194.071 372.65 199.835 350.257C201.202 344.936 203.025 339.731 204.633 334.471C204.955 333.426 205.236 332.368 205.712 330.722C194.748 330.257 184.729 332.631 174.857 336.083C184.688 331.161 195.224 329.542 206.007 329.461C226.106 280.784 260.05 248.586 312.063 237.622C307.352 225.356 295.959 215.356 282.709 210.899C246.834 232.652 209.096 230.521 170.018 220.245C161.38 232.322 154.517 245.518 151.602 260.71C151.025 263.933 150.241 267.129 149.933 270.379C149.417 275.74 149.591 281.188 148.807 286.502C144.397 316.319 128.36 338.025 101.07 349.758C69.2967 363.419 37.0744 361.855 5.5424 347.654C3.49834 346.73 1.8363 344.93 0 343.541C0.154142 342.988 0.301582 342.435 0.455723 341.882C2.63381 341.639 4.8119 341.181 6.98328 341.201C14.0135 341.268 21.0772 342.091 28.0538 341.565C43.2803 340.425 58.547 339.245 73.6261 336.946C90.2734 334.404 100.782 323.534 106.699 308.174C112.631 292.779 116.672 276.67 116.317 260.217C115.928 242.193 118.052 224.628 121.249 207.049C121.323 206.631 121.175 206.172 121.082 205.194Z"
    stroke="currentColor"
    stroke-width="1"
    fill="none"
  />
</svg>
