<svg width="1em" height="1em" viewBox="0 0 492 491" fill="none">
  <path
    d="M121.082 205.194C117.623 204.405 114.071 203.617 110.526 202.787C93.1886 198.728 75.831 198.539 58.4331 202.423C49.9687 204.311 42.3085 207.649 36.5785 214.587C37.7513 210.98 43.3473 206.523 48.9299 204.237C57.3206 200.811 66.1871 199.874 75.0536 198.782C89.63 196.988 103.697 200.097 117.784 203.111C118.977 203.367 120.17 203.61 121.98 203.994C126.966 182.288 137.481 164.163 156.246 151.372C154.892 149.025 153.592 146.969 152.466 144.811C146.924 134.211 147.353 123.786 153.981 113.874C163.806 99.1876 177.216 88.5337 192.53 80.1588C207.052 72.2156 222.674 67.1448 238.491 62.6742C256.86 57.4821 275.196 52.1012 293.767 47.7452C325.299 40.3481 355.631 45.7156 385.005 58.2441C423.353 74.6026 450.777 102.418 468.59 139.963C475.118 153.725 481.605 167.629 486.538 182.012C494.815 206.165 491.718 229.665 479.032 251.775C469.824 267.823 455.669 276.239 437.568 278.639C419.272 281.067 400.929 282.254 382.486 281.889C363.406 281.512 344.325 281.047 325.252 280.622C323.811 280.588 322.37 280.615 320.702 280.615C320.253 281.849 319.777 282.847 319.529 283.899C315.045 302.577 303.833 315.274 286.06 322.206C270.947 328.099 255.386 331.74 239.114 331.929C238.122 331.943 237.137 332.057 235.381 332.179C229.658 344.073 223.572 356.069 218.07 368.321C212.581 380.546 208.647 393.385 206.67 406.642C204.713 419.791 203.655 433.081 202.2 446.304C201.838 446.412 201.476 446.513 201.115 446.621C200.418 445.38 199.339 444.214 199.077 442.879C197.455 434.747 195.458 426.642 194.627 418.415C192.302 395.421 194.071 372.65 199.835 350.257C201.202 344.936 203.025 339.731 204.633 334.471C204.955 333.426 205.236 332.368 205.712 330.722C194.748 330.257 184.729 332.631 174.857 336.083C184.688 331.161 195.224 329.542 206.007 329.461C226.106 280.784 260.05 248.586 312.063 237.622C307.352 225.356 295.959 215.356 282.709 210.899C246.834 232.652 209.096 230.521 170.018 220.245C161.38 232.322 154.517 245.518 151.602 260.71C151.025 263.933 150.241 267.129 149.933 270.379C149.417 275.74 149.591 281.188 148.807 286.502C144.397 316.319 128.36 338.025 101.07 349.758C69.2967 363.419 37.0744 361.855 5.5424 347.654C3.49834 346.73 1.8363 344.93 0 343.541C0.154142 342.988 0.301582 342.435 0.455723 341.882C2.63381 341.639 4.8119 341.181 6.98328 341.201C14.0135 341.268 21.0772 342.091 28.0538 341.565C43.2803 340.425 58.547 339.245 73.6261 336.946C90.2734 334.404 100.782 323.534 106.699 308.174C112.631 292.779 116.672 276.67 116.317 260.217C115.928 242.193 118.052 224.628 121.249 207.049C121.323 206.631 121.175 206.172 121.082 205.194ZM157.874 149.497C165.246 146.025 172.223 142.511 179.374 139.41C206.583 127.603 234.932 124.15 264.266 127.812C282.508 130.084 300.207 134.683 317.739 140.043C334.822 145.269 351.992 150.273 367.856 158.843C389.824 170.717 402.055 189.294 404.756 214.001C405.855 224.034 401.747 234.317 388.417 235.639C381.869 236.286 375.335 237.102 368.774 237.5C354.854 238.343 340.914 238.95 326.988 239.692C323.369 239.887 319.763 240.224 316.433 240.481C317.947 246.839 319.958 252.847 320.675 259.017C321.399 265.173 320.836 271.485 320.836 278.046C322.518 278.14 323.818 278.295 325.111 278.282C332.812 278.181 340.519 277.769 348.213 277.978C360.477 278.316 372.728 279.32 384.992 279.563C402.531 279.914 419.982 278.633 437.394 276.333C454.295 274.101 467.652 266.441 476.472 251.64C489.071 230.487 492.147 207.898 485.037 184.237C478.804 163.482 468.993 144.278 458.35 125.526C450.429 111.575 440.362 99.2685 428.554 88.4595C413.502 74.6903 396.211 64.5758 377.251 57.2798C348.889 46.3696 319.844 43.0318 290.182 50.4761C269.835 55.5806 249.709 61.6021 229.544 67.4078C214.471 71.7436 199.861 77.2998 186.518 85.769C173.925 93.7595 162.72 103.281 154.684 116.092C147.956 126.82 149.45 141.082 157.874 149.497ZM314.335 237.81C316.051 237.81 317.485 237.871 318.919 237.804C332.068 237.15 345.224 236.603 358.359 235.747C368.479 235.086 378.612 234.297 388.678 233.084C397.739 231.991 402.129 226.873 402.249 217.682C402.477 200.306 395.333 185.822 383.799 173.489C374.812 163.873 363.111 158.277 351.041 153.685C329.092 145.337 306.635 138.607 283.721 133.476C265.847 129.477 247.752 127.92 229.497 129.167C210.001 130.495 191.585 136.227 173.845 144.217C169 146.402 164.389 149.113 159.148 151.851C172.471 165.835 187.101 176.213 204.7 181.506C209.746 178.364 214.324 175.1 219.25 172.518C232.895 165.363 246.861 158.971 262.832 160.347C271.604 161.102 279.687 164.089 285.946 170.556C294.565 179.456 295.034 195.168 287.313 205.363C286.335 206.658 285.303 207.919 283.949 209.638C298.117 215.012 307.881 224.628 314.335 237.81ZM124.218 205.559C123.709 207.426 123.3 208.573 123.092 209.746C120.177 225.997 118.28 242.241 118.575 258.896C118.89 276.731 114.856 294.162 107.993 310.682C101.432 326.481 89.9182 336.67 72.7414 339.427C64.7127 340.715 56.6303 341.922 48.5211 342.428C36.9605 343.15 25.3663 343.204 13.7789 343.5C10.495 343.581 7.21115 343.514 3.36431 343.514C4.10821 344.309 4.34277 344.721 4.68456 344.903C7.07041 346.117 9.40934 347.492 11.9024 348.436C36.6522 357.829 61.7169 358.847 87.5122 352.684C119.044 345.152 147.185 314.31 147.52 278.835C147.715 258.201 154.544 239.685 166.104 222.807C166.828 221.749 167.438 220.602 168.638 218.606C153.498 214.163 139.016 209.901 124.218 205.559ZM314.107 240.582C268.039 245.605 222.373 287.338 209.599 329.509C217.628 330.028 225.576 330.54 233.431 331.053C237.345 324.364 240.903 318.018 244.71 311.828C251.948 300.048 260.975 290.143 274.003 284.668C282.984 280.891 292.474 279.617 302.084 279.01C307.626 278.659 313.169 278.376 319.113 278.032C321.177 264.917 319.435 252.598 314.107 240.582ZM202.294 182.619C185.184 176.941 170.729 166.476 158.183 153.435C143.928 159.558 124.627 189.079 124.774 204.358C139.558 208.721 154.39 213.097 168.872 217.366C179.964 205.835 190.955 194.412 202.294 182.619ZM280.062 209.611C277.669 208.647 275.478 207.642 273.206 206.867C251.552 199.463 229.879 192.106 208.232 184.696C206.107 183.967 204.338 184.136 202.716 185.761C194.413 194.062 186.049 202.302 177.819 210.67C175.514 213.01 173.597 215.734 171.446 218.35C196.544 232.261 264.366 226.873 280.062 209.611ZM282.354 208.262C294.839 198.02 294.082 177.299 280.826 168.31C271.845 162.221 261.799 160.819 251.325 162.376C240.025 164.062 229.751 168.775 219.793 174.156C215.51 176.469 211.496 179.268 206.583 182.329C232.365 191.155 257.229 199.665 282.354 208.262ZM318.47 280.709C316.6 280.709 315.394 280.642 314.194 280.723C307.412 281.168 300.61 281.451 293.854 282.152C280.766 283.501 268.89 287.884 259.179 297.196C252.236 303.858 247.149 311.896 242.398 320.183C240.474 323.541 238.685 326.973 236.52 330.945C238.665 330.945 240.086 331.039 241.5 330.931C258.763 329.63 275.464 326.056 291.18 318.484C305.435 311.613 313.866 300.062 317.853 284.937C318.155 283.791 318.209 282.577 318.47 280.709ZM200.538 438.334C201.101 399.899 214.23 365.348 233.323 332.219C224.665 331.66 216.837 331.154 208.58 330.621C195.599 365.907 192.724 401.652 200.538 438.334Z"
    fill="currentColor"
  />
</svg>
