<svg
  width="1em"
  height="1em"
  viewBox="0 0 385 384"
  fill="none"
  stroke="currentColor"
  stroke-linecap="round"
  stroke-linejoin="round"
>
  <path
    d="M29.821 144C39.421 152 49.021 160 69.821 160C109.821 160 109.821 128 149.821 128C191.421 128 188.221 160 229.821 160C269.821 160 269.821 128 309.821 128C330.621 128 340.221 136 349.821 144"
  />
  <path
    d="M29.821 240C39.421 248 49.021 256 69.821 256C109.821 256 109.821 224 149.821 224C191.421 224 188.221 256 229.821 256C269.821 256 269.821 224 309.821 224C330.621 224 340.221 232 349.821 240"
  />
</svg>
